<svg viewBox="0 0 640 640" xmlns="http://www.w3.org/2000/svg">
<defs><radialGradient id="g99" cx="50%" cy="35%" r="75%">
<stop offset="0%" stop-color="#ececec"/>
<stop offset="100%" stop-color="#ffffff"/>
</radialGradient></defs>
<rect width="640" height="640" fill="url(#g99)"/>
<line x1="258.5" y1="128.0" x2="228.8" y2="138.1" stroke="#000000" stroke-opacity="0.066" stroke-width="1"/>
<line x1="258.5" y1="128.0" x2="255.9" y2="71.9" stroke="#000000" stroke-opacity="0.024" stroke-width="1"/>
<line x1="258.5" y1="128.0" x2="284.2" y2="131.4" stroke="#000000" stroke-opacity="0.076" stroke-width="1"/>
<line x1="258.5" y1="128.0" x2="294.9" y2="82.2" stroke="#000000" stroke-opacity="0.02" stroke-width="1"/>
<line x1="258.5" y1="128.0" x2="264.9" y2="106.2" stroke="#000000" stroke-opacity="0.081" stroke-width="1"/>
<line x1="159.0" y1="486.3" x2="102.9" y2="506.8" stroke="#000000" stroke-opacity="0.018" stroke-width="1"/>
<line x1="159.0" y1="486.3" x2="189.7" y2="481.0" stroke="#000000" stroke-opacity="0.067" stroke-width="1"/>
<line x1="159.0" y1="486.3" x2="148.0" y2="550.7" stroke="#000000" stroke-opacity="0.009" stroke-width="1"/>
<line x1="159.0" y1="486.3" x2="188.9" y2="484.3" stroke="#000000" stroke-opacity="0.069" stroke-width="1"/>
<line x1="159.0" y1="486.3" x2="214.9" y2="469.6" stroke="#000000" stroke-opacity="0.021" stroke-width="1"/>
<line x1="159.0" y1="486.3" x2="147.2" y2="483.5" stroke="#000000" stroke-opacity="0.099" stroke-width="1"/>
<line x1="159.0" y1="486.3" x2="209.3" y2="530.6" stroke="#000000" stroke-opacity="0.006" stroke-width="1"/>
<line x1="245.2" y1="438.0" x2="226.4" y2="444.8" stroke="#000000" stroke-opacity="0.086" stroke-width="1"/>
<line x1="245.2" y1="438.0" x2="189.7" y2="481.0" stroke="#000000" stroke-opacity="0.0" stroke-width="1"/>
<line x1="245.2" y1="438.0" x2="214.9" y2="469.6" stroke="#000000" stroke-opacity="0.045" stroke-width="1"/>
<line x1="245.2" y1="438.0" x2="281.0" y2="445.1" stroke="#000000" stroke-opacity="0.058" stroke-width="1"/>
<line x1="245.2" y1="438.0" x2="219.1" y2="400.0" stroke="#000000" stroke-opacity="0.042" stroke-width="1"/>
<line x1="245.2" y1="438.0" x2="241.2" y2="436.6" stroke="#000000" stroke-opacity="0.113" stroke-width="1"/>
<line x1="600.6" y1="313.1" x2="633.3" y2="342.0" stroke="#000000" stroke-opacity="0.046" stroke-width="1"/>
<line x1="600.6" y1="313.1" x2="615.1" y2="266.7" stroke="#000000" stroke-opacity="0.037" stroke-width="1"/>
<line x1="600.6" y1="313.1" x2="599.6" y2="306.7" stroke="#000000" stroke-opacity="0.109" stroke-width="1"/>
<line x1="600.6" y1="313.1" x2="569.1" y2="304.9" stroke="#000000" stroke-opacity="0.065" stroke-width="1"/>
<line x1="392.5" y1="138.7" x2="425.6" y2="109.9" stroke="#000000" stroke-opacity="0.045" stroke-width="1"/>
<line x1="392.5" y1="138.7" x2="413.8" y2="106.6" stroke="#000000" stroke-opacity="0.054" stroke-width="1"/>
<line x1="392.5" y1="138.7" x2="388.1" y2="203.1" stroke="#000000" stroke-opacity="0.01" stroke-width="1"/>
<line x1="239.3" y1="248.4" x2="265.0" y2="237.4" stroke="#000000" stroke-opacity="0.072" stroke-width="1"/>
<line x1="239.3" y1="248.4" x2="255.1" y2="284.1" stroke="#000000" stroke-opacity="0.053" stroke-width="1"/>
<line x1="239.3" y1="248.4" x2="176.3" y2="233.7" stroke="#000000" stroke-opacity="0.01" stroke-width="1"/>
<line x1="239.3" y1="248.4" x2="184.8" y2="255.7" stroke="#000000" stroke-opacity="0.026" stroke-width="1"/>
<line x1="97.5" y1="422.8" x2="104.9" y2="363.0" stroke="#000000" stroke-opacity="0.017" stroke-width="1"/>
<line x1="216.8" y1="606.0" x2="280.2" y2="616.8" stroke="#000000" stroke-opacity="0.01" stroke-width="1"/>
<line x1="216.8" y1="606.0" x2="164.4" y2="564.2" stroke="#000000" stroke-opacity="0.006" stroke-width="1"/>
<line x1="216.8" y1="606.0" x2="267.6" y2="610.8" stroke="#000000" stroke-opacity="0.033" stroke-width="1"/>
<line x1="495.7" y1="300.2" x2="504.5" y2="341.3" stroke="#000000" stroke-opacity="0.048" stroke-width="1"/>
<line x1="495.7" y1="300.2" x2="472.9" y2="299.5" stroke="#000000" stroke-opacity="0.081" stroke-width="1"/>
<line x1="495.7" y1="300.2" x2="507.9" y2="255.0" stroke="#000000" stroke-opacity="0.04" stroke-width="1"/>
<line x1="495.7" y1="300.2" x2="495.4" y2="238.8" stroke="#000000" stroke-opacity="0.015" stroke-width="1"/>
<line x1="172.4" y1="4.9" x2="119.0" y2="46.3" stroke="#000000" stroke-opacity="0.005" stroke-width="1"/>
<line x1="633.3" y1="342.0" x2="599.6" y2="306.7" stroke="#000000" stroke-opacity="0.037" stroke-width="1"/>
<line x1="576.2" y1="387.5" x2="520.9" y2="390.6" stroke="#000000" stroke-opacity="0.026" stroke-width="1"/>
<line x1="228.8" y1="138.1" x2="284.2" y2="131.4" stroke="#000000" stroke-opacity="0.025" stroke-width="1"/>
<line x1="228.8" y1="138.1" x2="264.9" y2="106.2" stroke="#000000" stroke-opacity="0.038" stroke-width="1"/>
<line x1="102.9" y1="506.8" x2="83.8" y2="552.9" stroke="#000000" stroke-opacity="0.035" stroke-width="1"/>
<line x1="102.9" y1="506.8" x2="148.0" y2="550.7" stroke="#000000" stroke-opacity="0.013" stroke-width="1"/>
<line x1="102.9" y1="506.8" x2="147.2" y2="483.5" stroke="#000000" stroke-opacity="0.035" stroke-width="1"/>
<line x1="629.0" y1="604.1" x2="562.9" y2="590.7" stroke="#000000" stroke-opacity="0.005" stroke-width="1"/>
<line x1="23.7" y1="14.9" x2="30.4" y2="23.1" stroke="#000000" stroke-opacity="0.102" stroke-width="1"/>
<line x1="524.6" y1="51.9" x2="503.8" y2="35.5" stroke="#000000" stroke-opacity="0.075" stroke-width="1"/>
<line x1="524.6" y1="51.9" x2="541.5" y2="75.0" stroke="#000000" stroke-opacity="0.071" stroke-width="1"/>
<line x1="524.6" y1="51.9" x2="515.4" y2="75.0" stroke="#000000" stroke-opacity="0.078" stroke-width="1"/>
<line x1="55.1" y1="198.3" x2="0.8" y2="198.7" stroke="#000000" stroke-opacity="0.028" stroke-width="1"/>
<line x1="55.1" y1="198.3" x2="67.3" y2="196.8" stroke="#000000" stroke-opacity="0.099" stroke-width="1"/>
<line x1="55.1" y1="198.3" x2="47.8" y2="153.3" stroke="#000000" stroke-opacity="0.042" stroke-width="1"/>
<line x1="55.1" y1="198.3" x2="9.9" y2="211.0" stroke="#000000" stroke-opacity="0.04" stroke-width="1"/>
<line x1="55.1" y1="198.3" x2="29.2" y2="253.8" stroke="#000000" stroke-opacity="0.016" stroke-width="1"/>
<line x1="211.0" y1="335.0" x2="255.1" y2="284.1" stroke="#000000" stroke-opacity="0.005" stroke-width="1"/>
<line x1="211.0" y1="335.0" x2="219.1" y2="400.0" stroke="#000000" stroke-opacity="0.008" stroke-width="1"/>
<line x1="503.8" y1="35.5" x2="541.5" y2="75.0" stroke="#000000" stroke-opacity="0.027" stroke-width="1"/>
<line x1="503.8" y1="35.5" x2="515.4" y2="75.0" stroke="#000000" stroke-opacity="0.05" stroke-width="1"/>
<line x1="503.8" y1="35.5" x2="443.9" y2="11.9" stroke="#000000" stroke-opacity="0.01" stroke-width="1"/>
<line x1="164.8" y1="258.6" x2="176.3" y2="233.7" stroke="#000000" stroke-opacity="0.073" stroke-width="1"/>
<line x1="164.8" y1="258.6" x2="184.8" y2="255.7" stroke="#000000" stroke-opacity="0.086" stroke-width="1"/>
<line x1="226.4" y1="444.8" x2="189.7" y2="481.0" stroke="#000000" stroke-opacity="0.032" stroke-width="1"/>
<line x1="226.4" y1="444.8" x2="188.9" y2="484.3" stroke="#000000" stroke-opacity="0.027" stroke-width="1"/>
<line x1="226.4" y1="444.8" x2="214.9" y2="469.6" stroke="#000000" stroke-opacity="0.073" stroke-width="1"/>
<line x1="226.4" y1="444.8" x2="281.0" y2="445.1" stroke="#000000" stroke-opacity="0.027" stroke-width="1"/>
<line x1="226.4" y1="444.8" x2="219.1" y2="400.0" stroke="#000000" stroke-opacity="0.043" stroke-width="1"/>
<line x1="226.4" y1="444.8" x2="241.2" y2="436.6" stroke="#000000" stroke-opacity="0.091" stroke-width="1"/>
<line x1="83.8" y1="552.9" x2="148.0" y2="550.7" stroke="#000000" stroke-opacity="0.011" stroke-width="1"/>
<line x1="83.8" y1="552.9" x2="101.6" y2="603.9" stroke="#000000" stroke-opacity="0.028" stroke-width="1"/>
<line x1="478.2" y1="389.1" x2="418.8" y2="418.2" stroke="#000000" stroke-opacity="0.007" stroke-width="1"/>
<line x1="478.2" y1="389.1" x2="517.9" y2="431.5" stroke="#000000" stroke-opacity="0.021" stroke-width="1"/>
<line x1="478.2" y1="389.1" x2="504.5" y2="341.3" stroke="#000000" stroke-opacity="0.027" stroke-width="1"/>
<line x1="478.2" y1="389.1" x2="421.3" y2="391.0" stroke="#000000" stroke-opacity="0.023" stroke-width="1"/>
<line x1="478.2" y1="389.1" x2="434.1" y2="386.7" stroke="#000000" stroke-opacity="0.045" stroke-width="1"/>
<line x1="478.2" y1="389.1" x2="458.8" y2="393.6" stroke="#000000" stroke-opacity="0.086" stroke-width="1"/>
<line x1="478.2" y1="389.1" x2="520.9" y2="390.6" stroke="#000000" stroke-opacity="0.047" stroke-width="1"/>
<line x1="61.7" y1="91.9" x2="113.7" y2="93.1" stroke="#000000" stroke-opacity="0.031" stroke-width="1"/>
<line x1="61.7" y1="91.9" x2="47.8" y2="153.3" stroke="#000000" stroke-opacity="0.013" stroke-width="1"/>
<line x1="61.7" y1="91.9" x2="96.1" y2="55.4" stroke="#000000" stroke-opacity="0.034" stroke-width="1"/>
<line x1="61.7" y1="91.9" x2="114.9" y2="71.1" stroke="#000000" stroke-opacity="0.023" stroke-width="1"/>
<line x1="113.7" y1="93.1" x2="119.0" y2="46.3" stroke="#000000" stroke-opacity="0.04" stroke-width="1"/>
<line x1="113.7" y1="93.1" x2="96.1" y2="55.4" stroke="#000000" stroke-opacity="0.049" stroke-width="1"/>
<line x1="113.7" y1="93.1" x2="114.9" y2="71.1" stroke="#000000" stroke-opacity="0.082" stroke-width="1"/>
<line x1="359.0" y1="493.2" x2="420.6" y2="475.5" stroke="#000000" stroke-opacity="0.011" stroke-width="1"/>
<line x1="359.0" y1="493.2" x2="417.7" y2="521.7" stroke="#000000" stroke-opacity="0.009" stroke-width="1"/>
<line x1="541.5" y1="75.0" x2="515.4" y2="75.0" stroke="#000000" stroke-opacity="0.076" stroke-width="1"/>
<line x1="541.5" y1="75.0" x2="576.4" y2="115.0" stroke="#000000" stroke-opacity="0.03" stroke-width="1"/>
<line x1="119.0" y1="46.3" x2="96.1" y2="55.4" stroke="#000000" stroke-opacity="0.078" stroke-width="1"/>
<line x1="119.0" y1="46.3" x2="114.9" y2="71.1" stroke="#000000" stroke-opacity="0.077" stroke-width="1"/>
<line x1="374.8" y1="30.5" x2="362.0" y2="18.4" stroke="#000000" stroke-opacity="0.09" stroke-width="1"/>
<line x1="255.4" y1="526.3" x2="285.8" y2="544.1" stroke="#000000" stroke-opacity="0.06" stroke-width="1"/>
<line x1="255.4" y1="526.3" x2="214.9" y2="469.6" stroke="#000000" stroke-opacity="0.001" stroke-width="1"/>
<line x1="255.4" y1="526.3" x2="209.3" y2="530.6" stroke="#000000" stroke-opacity="0.041" stroke-width="1"/>
<line x1="265.0" y1="237.4" x2="255.1" y2="284.1" stroke="#000000" stroke-opacity="0.039" stroke-width="1"/>
<line x1="562.9" y1="590.7" x2="507.5" y2="559.5" stroke="#000000" stroke-opacity="0.012" stroke-width="1"/>
<line x1="562.9" y1="590.7" x2="523.1" y2="560.3" stroke="#000000" stroke-opacity="0.034" stroke-width="1"/>
<line x1="418.8" y1="418.2" x2="421.3" y2="391.0" stroke="#000000" stroke-opacity="0.074" stroke-width="1"/>
<line x1="418.8" y1="418.2" x2="434.1" y2="386.7" stroke="#000000" stroke-opacity="0.06" stroke-width="1"/>
<line x1="418.8" y1="418.2" x2="420.6" y2="475.5" stroke="#000000" stroke-opacity="0.022" stroke-width="1"/>
<line x1="418.8" y1="418.2" x2="396.7" y2="404.3" stroke="#000000" stroke-opacity="0.076" stroke-width="1"/>
<line x1="418.8" y1="418.2" x2="433.8" y2="463.8" stroke="#000000" stroke-opacity="0.038" stroke-width="1"/>
<line x1="418.8" y1="418.2" x2="458.8" y2="393.6" stroke="#000000" stroke-opacity="0.04" stroke-width="1"/>
<line x1="559.5" y1="461.3" x2="517.9" y2="431.5" stroke="#000000" stroke-opacity="0.033" stroke-width="1"/>
<line x1="559.5" y1="461.3" x2="618.7" y2="467.6" stroke="#000000" stroke-opacity="0.019" stroke-width="1"/>
<line x1="517.9" y1="431.5" x2="458.8" y2="393.6" stroke="#000000" stroke-opacity="0.0" stroke-width="1"/>
<line x1="517.9" y1="431.5" x2="520.9" y2="390.6" stroke="#000000" stroke-opacity="0.05" stroke-width="1"/>
<line x1="189.7" y1="481.0" x2="188.9" y2="484.3" stroke="#000000" stroke-opacity="0.114" stroke-width="1"/>
<line x1="189.7" y1="481.0" x2="214.9" y2="469.6" stroke="#000000" stroke-opacity="0.073" stroke-width="1"/>
<line x1="189.7" y1="481.0" x2="147.2" y2="483.5" stroke="#000000" stroke-opacity="0.047" stroke-width="1"/>
<line x1="189.7" y1="481.0" x2="241.2" y2="436.6" stroke="#000000" stroke-opacity="0.004" stroke-width="1"/>
<line x1="189.7" y1="481.0" x2="209.3" y2="530.6" stroke="#000000" stroke-opacity="0.029" stroke-width="1"/>
<line x1="280.2" y1="616.8" x2="322.0" y2="580.6" stroke="#000000" stroke-opacity="0.026" stroke-width="1"/>
<line x1="280.2" y1="616.8" x2="267.6" y2="610.8" stroke="#000000" stroke-opacity="0.096" stroke-width="1"/>
<line x1="322.0" y1="580.6" x2="356.6" y2="606.9" stroke="#000000" stroke-opacity="0.046" stroke-width="1"/>
<line x1="322.0" y1="580.6" x2="285.8" y2="544.1" stroke="#000000" stroke-opacity="0.032" stroke-width="1"/>
<line x1="322.0" y1="580.6" x2="267.6" y2="610.8" stroke="#000000" stroke-opacity="0.014" stroke-width="1"/>
<line x1="504.5" y1="341.3" x2="472.9" y2="299.5" stroke="#000000" stroke-opacity="0.031" stroke-width="1"/>
<line x1="504.5" y1="341.3" x2="458.8" y2="393.6" stroke="#000000" stroke-opacity="0.002" stroke-width="1"/>
<line x1="504.5" y1="341.3" x2="520.9" y2="390.6" stroke="#000000" stroke-opacity="0.031" stroke-width="1"/>
<line x1="164.4" y1="564.2" x2="148.0" y2="550.7" stroke="#000000" stroke-opacity="0.084" stroke-width="1"/>
<line x1="164.4" y1="564.2" x2="209.3" y2="530.6" stroke="#000000" stroke-opacity="0.024" stroke-width="1"/>
<line x1="421.3" y1="391.0" x2="434.1" y2="386.7" stroke="#000000" stroke-opacity="0.097" stroke-width="1"/>
<line x1="421.3" y1="391.0" x2="396.7" y2="404.3" stroke="#000000" stroke-opacity="0.072" stroke-width="1"/>
<line x1="421.3" y1="391.0" x2="458.8" y2="393.6" stroke="#000000" stroke-opacity="0.056" stroke-width="1"/>
<line x1="434.1" y1="386.7" x2="396.7" y2="404.3" stroke="#000000" stroke-opacity="0.05" stroke-width="1"/>
<line x1="434.1" y1="386.7" x2="458.8" y2="393.6" stroke="#000000" stroke-opacity="0.076" stroke-width="1"/>
<line x1="426.7" y1="281.6" x2="472.9" y2="299.5" stroke="#000000" stroke-opacity="0.036" stroke-width="1"/>
<line x1="568.0" y1="221.0" x2="615.1" y2="266.7" stroke="#000000" stroke-opacity="0.008" stroke-width="1"/>
<line x1="568.0" y1="221.0" x2="507.9" y2="255.0" stroke="#000000" stroke-opacity="0.002" stroke-width="1"/>
<line x1="568.0" y1="221.0" x2="569.4" y2="244.9" stroke="#000000" stroke-opacity="0.079" stroke-width="1"/>
<line x1="568.0" y1="221.0" x2="518.2" y2="189.3" stroke="#000000" stroke-opacity="0.019" stroke-width="1"/>
<line x1="425.6" y1="109.9" x2="478.4" y2="107.1" stroke="#000000" stroke-opacity="0.03" stroke-width="1"/>
<line x1="425.6" y1="109.9" x2="492.1" y2="128.2" stroke="#000000" stroke-opacity="0.002" stroke-width="1"/>
<line x1="425.6" y1="109.9" x2="413.8" y2="106.6" stroke="#000000" stroke-opacity="0.099" stroke-width="1"/>
<line x1="420.6" y1="475.5" x2="417.7" y2="521.7" stroke="#000000" stroke-opacity="0.041" stroke-width="1"/>
<line x1="420.6" y1="475.5" x2="433.8" y2="463.8" stroke="#000000" stroke-opacity="0.09" stroke-width="1"/>
<line x1="148.0" y1="550.7" x2="147.2" y2="483.5" stroke="#000000" stroke-opacity="0.005" stroke-width="1"/>
<line x1="148.0" y1="550.7" x2="209.3" y2="530.6" stroke="#000000" stroke-opacity="0.01" stroke-width="1"/>
<line x1="255.9" y1="71.9" x2="284.2" y2="131.4" stroke="#000000" stroke-opacity="0.008" stroke-width="1"/>
<line x1="255.9" y1="71.9" x2="294.9" y2="82.2" stroke="#000000" stroke-opacity="0.051" stroke-width="1"/>
<line x1="255.9" y1="71.9" x2="264.9" y2="106.2" stroke="#000000" stroke-opacity="0.06" stroke-width="1"/>
<line x1="255.9" y1="71.9" x2="273.6" y2="46.3" stroke="#000000" stroke-opacity="0.067" stroke-width="1"/>
<line x1="0.8" y1="198.7" x2="67.3" y2="196.8" stroke="#000000" stroke-opacity="0.007" stroke-width="1"/>
<line x1="0.8" y1="198.7" x2="47.8" y2="153.3" stroke="#000000" stroke-opacity="0.009" stroke-width="1"/>
<line x1="0.8" y1="198.7" x2="9.9" y2="211.0" stroke="#000000" stroke-opacity="0.094" stroke-width="1"/>
<line x1="0.8" y1="198.7" x2="29.2" y2="253.8" stroke="#000000" stroke-opacity="0.014" stroke-width="1"/>
<line x1="478.4" y1="107.1" x2="492.1" y2="128.2" stroke="#000000" stroke-opacity="0.077" stroke-width="1"/>
<line x1="478.4" y1="107.1" x2="515.4" y2="75.0" stroke="#000000" stroke-opacity="0.036" stroke-width="1"/>
<line x1="478.4" y1="107.1" x2="413.8" y2="106.6" stroke="#000000" stroke-opacity="0.01" stroke-width="1"/>
<line x1="478.4" y1="107.1" x2="508.7" y2="150.6" stroke="#000000" stroke-opacity="0.03" stroke-width="1"/>
<line x1="284.2" y1="131.4" x2="294.9" y2="82.2" stroke="#000000" stroke-opacity="0.034" stroke-width="1"/>
<line x1="284.2" y1="131.4" x2="264.9" y2="106.2" stroke="#000000" stroke-opacity="0.066" stroke-width="1"/>
<line x1="472.9" y1="299.5" x2="507.9" y2="255.0" stroke="#000000" stroke-opacity="0.023" stroke-width="1"/>
<line x1="472.9" y1="299.5" x2="495.4" y2="238.8" stroke="#000000" stroke-opacity="0.01" stroke-width="1"/>
<line x1="396.7" y1="404.3" x2="341.1" y2="405.4" stroke="#000000" stroke-opacity="0.025" stroke-width="1"/>
<line x1="396.7" y1="404.3" x2="433.8" y2="463.8" stroke="#000000" stroke-opacity="0.0" stroke-width="1"/>
<line x1="396.7" y1="404.3" x2="458.8" y2="393.6" stroke="#000000" stroke-opacity="0.012" stroke-width="1"/>
<line x1="492.1" y1="128.2" x2="515.4" y2="75.0" stroke="#000000" stroke-opacity="0.021" stroke-width="1"/>
<line x1="492.1" y1="128.2" x2="508.7" y2="150.6" stroke="#000000" stroke-opacity="0.072" stroke-width="1"/>
<line x1="492.1" y1="128.2" x2="518.2" y2="189.3" stroke="#000000" stroke-opacity="0.007" stroke-width="1"/>
<line x1="67.3" y1="196.8" x2="47.8" y2="153.3" stroke="#000000" stroke-opacity="0.039" stroke-width="1"/>
<line x1="67.3" y1="196.8" x2="9.9" y2="211.0" stroke="#000000" stroke-opacity="0.019" stroke-width="1"/>
<line x1="67.3" y1="196.8" x2="29.2" y2="253.8" stroke="#000000" stroke-opacity="0.003" stroke-width="1"/>
<line x1="615.1" y1="266.7" x2="569.4" y2="244.9" stroke="#000000" stroke-opacity="0.034" stroke-width="1"/>
<line x1="615.1" y1="266.7" x2="599.6" y2="306.7" stroke="#000000" stroke-opacity="0.047" stroke-width="1"/>
<line x1="615.1" y1="266.7" x2="569.1" y2="304.9" stroke="#000000" stroke-opacity="0.018" stroke-width="1"/>
<line x1="188.9" y1="484.3" x2="214.9" y2="469.6" stroke="#000000" stroke-opacity="0.069" stroke-width="1"/>
<line x1="188.9" y1="484.3" x2="147.2" y2="483.5" stroke="#000000" stroke-opacity="0.049" stroke-width="1"/>
<line x1="188.9" y1="484.3" x2="209.3" y2="530.6" stroke="#000000" stroke-opacity="0.034" stroke-width="1"/>
<line x1="507.9" y1="255.0" x2="569.4" y2="244.9" stroke="#000000" stroke-opacity="0.014" stroke-width="1"/>
<line x1="507.9" y1="255.0" x2="495.4" y2="238.8" stroke="#000000" stroke-opacity="0.085" stroke-width="1"/>
<line x1="507.9" y1="255.0" x2="518.2" y2="189.3" stroke="#000000" stroke-opacity="0.007" stroke-width="1"/>
<line x1="294.9" y1="82.2" x2="264.9" y2="106.2" stroke="#000000" stroke-opacity="0.054" stroke-width="1"/>
<line x1="294.9" y1="82.2" x2="273.6" y2="46.3" stroke="#000000" stroke-opacity="0.049" stroke-width="1"/>
<line x1="285.8" y1="544.1" x2="267.6" y2="610.8" stroke="#000000" stroke-opacity="0.002" stroke-width="1"/>
<line x1="160.1" y1="175.1" x2="176.3" y2="233.7" stroke="#000000" stroke-opacity="0.016" stroke-width="1"/>
<line x1="569.4" y1="244.9" x2="599.6" y2="306.7" stroke="#000000" stroke-opacity="0.003" stroke-width="1"/>
<line x1="569.4" y1="244.9" x2="569.1" y2="304.9" stroke="#000000" stroke-opacity="0.018" stroke-width="1"/>
<line x1="599.6" y1="306.7" x2="569.1" y2="304.9" stroke="#000000" stroke-opacity="0.068" stroke-width="1"/>
<line x1="47.8" y1="153.3" x2="9.9" y2="211.0" stroke="#000000" stroke-opacity="0.002" stroke-width="1"/>
<line x1="9.9" y1="211.0" x2="29.2" y2="253.8" stroke="#000000" stroke-opacity="0.04" stroke-width="1"/>
<line x1="214.9" y1="469.6" x2="147.2" y2="483.5" stroke="#000000" stroke-opacity="0.002" stroke-width="1"/>
<line x1="214.9" y1="469.6" x2="219.1" y2="400.0" stroke="#000000" stroke-opacity="0.001" stroke-width="1"/>
<line x1="214.9" y1="469.6" x2="241.2" y2="436.6" stroke="#000000" stroke-opacity="0.048" stroke-width="1"/>
<line x1="214.9" y1="469.6" x2="209.3" y2="530.6" stroke="#000000" stroke-opacity="0.016" stroke-width="1"/>
<line x1="264.9" y1="106.2" x2="273.6" y2="46.3" stroke="#000000" stroke-opacity="0.017" stroke-width="1"/>
<line x1="281.0" y1="445.1" x2="241.2" y2="436.6" stroke="#000000" stroke-opacity="0.051" stroke-width="1"/>
<line x1="176.3" y1="233.7" x2="184.8" y2="255.7" stroke="#000000" stroke-opacity="0.08" stroke-width="1"/>
<line x1="126.9" y1="357.8" x2="104.9" y2="363.0" stroke="#000000" stroke-opacity="0.081" stroke-width="1"/>
<line x1="417.7" y1="521.7" x2="433.8" y2="463.8" stroke="#000000" stroke-opacity="0.018" stroke-width="1"/>
<line x1="96.1" y1="55.4" x2="114.9" y2="71.1" stroke="#000000" stroke-opacity="0.078" stroke-width="1"/>
<line x1="458.8" y1="393.6" x2="520.9" y2="390.6" stroke="#000000" stroke-opacity="0.014" stroke-width="1"/>
<line x1="391.1" y1="217.7" x2="388.1" y2="203.1" stroke="#000000" stroke-opacity="0.095" stroke-width="1"/>
<line x1="219.1" y1="400.0" x2="241.2" y2="436.6" stroke="#000000" stroke-opacity="0.047" stroke-width="1"/>
<line x1="508.7" y1="150.6" x2="518.2" y2="189.3" stroke="#000000" stroke-opacity="0.052" stroke-width="1"/>
<line x1="508.7" y1="150.6" x2="576.8" y2="145.8" stroke="#000000" stroke-opacity="0.004" stroke-width="1"/>
<line x1="507.5" y1="559.5" x2="523.1" y2="560.3" stroke="#000000" stroke-opacity="0.093" stroke-width="1"/>
<line x1="495.4" y1="238.8" x2="518.2" y2="189.3" stroke="#000000" stroke-opacity="0.027" stroke-width="1"/>
<line x1="273.6" y1="46.3" x2="275.6" y2="2.1" stroke="#000000" stroke-opacity="0.045" stroke-width="1"/>
<line x1="576.8" y1="145.8" x2="634.7" y2="135.8" stroke="#000000" stroke-opacity="0.02" stroke-width="1"/>
<line x1="576.8" y1="145.8" x2="576.4" y2="115.0" stroke="#000000" stroke-opacity="0.068" stroke-width="1"/>
<line x1="576.8" y1="145.8" x2="633.1" y2="162.9" stroke="#000000" stroke-opacity="0.02" stroke-width="1"/>
<line x1="634.7" y1="135.8" x2="576.4" y2="115.0" stroke="#000000" stroke-opacity="0.015" stroke-width="1"/>
<line x1="634.7" y1="135.8" x2="633.1" y2="162.9" stroke="#000000" stroke-opacity="0.074" stroke-width="1"/>
<circle cx="258.5" cy="128.0" r="2.0" fill="#404040" fill-opacity="0.91"/>
<circle cx="159.0" cy="486.3" r="2.3" fill="#404040" fill-opacity="0.39"/>
<circle cx="245.2" cy="438.0" r="3.5" fill="#000000" fill-opacity="0.55"/>
<circle cx="600.6" cy="313.1" r="3.0" fill="#000000" fill-opacity="0.64"/>
<circle cx="392.5" cy="138.7" r="5.1" fill="#000000" fill-opacity="0.57"/>
<circle cx="239.3" cy="248.4" r="4.1" fill="#000000" fill-opacity="0.49"/>
<circle cx="97.5" cy="422.8" r="4.9" fill="#404040" fill-opacity="0.48"/>
<circle cx="216.8" cy="606.0" r="3.5" fill="#000000" fill-opacity="0.61"/>
<circle cx="495.7" cy="300.2" r="2.9" fill="#000000" fill-opacity="0.89"/>
<circle cx="172.4" cy="4.9" r="2.1" fill="#000000" fill-opacity="0.43"/>
<circle cx="633.3" cy="342.0" r="3.2" fill="#000000" fill-opacity="0.45"/>
<circle cx="576.2" cy="387.5" r="5.4" fill="#404040" fill-opacity="0.45"/>
<circle cx="228.8" cy="138.1" r="5.2" fill="#000000" fill-opacity="0.49"/>
<circle cx="102.9" cy="506.8" r="3.8" fill="#000000" fill-opacity="0.76"/>
<circle cx="629.0" cy="604.1" r="4.0" fill="#404040" fill-opacity="0.59"/>
<circle cx="23.7" cy="14.9" r="3.2" fill="#000000" fill-opacity="0.49"/>
<circle cx="524.6" cy="51.9" r="3.0" fill="#404040" fill-opacity="0.81"/>
<circle cx="55.1" cy="198.3" r="1.2" fill="#404040" fill-opacity="0.65"/>
<circle cx="211.0" cy="335.0" r="2.1" fill="#000000" fill-opacity="0.83"/>
<circle cx="503.8" cy="35.5" r="2.1" fill="#000000" fill-opacity="0.92"/>
<circle cx="164.8" cy="258.6" r="4.5" fill="#404040" fill-opacity="0.39"/>
<circle cx="226.4" cy="444.8" r="5.2" fill="#000000" fill-opacity="0.91"/>
<circle cx="83.8" cy="552.9" r="3.8" fill="#404040" fill-opacity="0.46"/>
<circle cx="478.2" cy="389.1" r="3.0" fill="#404040" fill-opacity="0.36"/>
<circle cx="61.7" cy="91.9" r="1.9" fill="#404040" fill-opacity="0.47"/>
<circle cx="113.7" cy="93.1" r="2.1" fill="#404040" fill-opacity="0.42"/>
<circle cx="359.0" cy="493.2" r="4.6" fill="#404040" fill-opacity="0.58"/>
<circle cx="541.5" cy="75.0" r="4.7" fill="#404040" fill-opacity="0.67"/>
<circle cx="119.0" cy="46.3" r="2.4" fill="#000000" fill-opacity="0.62"/>
<circle cx="374.8" cy="30.5" r="2.1" fill="#000000" fill-opacity="0.56"/>
<circle cx="255.4" cy="526.3" r="2.9" fill="#000000" fill-opacity="0.71"/>
<circle cx="265.0" cy="237.4" r="1.6" fill="#404040" fill-opacity="0.36"/>
<circle cx="562.9" cy="590.7" r="4.3" fill="#404040" fill-opacity="0.88"/>
<circle cx="255.1" cy="284.1" r="2.5" fill="#000000" fill-opacity="0.67"/>
<circle cx="418.8" cy="418.2" r="2.5" fill="#000000" fill-opacity="0.36"/>
<circle cx="559.5" cy="461.3" r="2.1" fill="#000000" fill-opacity="0.48"/>
<circle cx="517.9" cy="431.5" r="2.3" fill="#404040" fill-opacity="0.72"/>
<circle cx="189.7" cy="481.0" r="1.5" fill="#000000" fill-opacity="0.74"/>
<circle cx="280.2" cy="616.8" r="2.3" fill="#404040" fill-opacity="0.42"/>
<circle cx="322.0" cy="580.6" r="5.0" fill="#404040" fill-opacity="0.4"/>
<circle cx="504.5" cy="341.3" r="5.2" fill="#404040" fill-opacity="0.65"/>
<circle cx="164.4" cy="564.2" r="3.0" fill="#404040" fill-opacity="0.81"/>
<circle cx="421.3" cy="391.0" r="2.4" fill="#404040" fill-opacity="0.55"/>
<circle cx="434.1" cy="386.7" r="5.4" fill="#404040" fill-opacity="0.84"/>
<circle cx="426.7" cy="281.6" r="2.8" fill="#404040" fill-opacity="0.67"/>
<circle cx="568.0" cy="221.0" r="4.1" fill="#000000" fill-opacity="0.91"/>
<circle cx="444.4" cy="617.4" r="2.0" fill="#000000" fill-opacity="0.51"/>
<circle cx="425.6" cy="109.9" r="4.0" fill="#000000" fill-opacity="0.51"/>
<circle cx="420.6" cy="475.5" r="4.9" fill="#404040" fill-opacity="0.72"/>
<circle cx="148.0" cy="550.7" r="2.7" fill="#000000" fill-opacity="0.48"/>
<circle cx="255.9" cy="71.9" r="3.5" fill="#404040" fill-opacity="0.66"/>
<circle cx="0.8" cy="198.7" r="4.1" fill="#404040" fill-opacity="0.4"/>
<circle cx="478.4" cy="107.1" r="4.6" fill="#404040" fill-opacity="0.42"/>
<circle cx="284.2" cy="131.4" r="4.4" fill="#000000" fill-opacity="0.52"/>
<circle cx="472.9" cy="299.5" r="3.5" fill="#404040" fill-opacity="0.61"/>
<circle cx="396.7" cy="404.3" r="4.5" fill="#404040" fill-opacity="0.66"/>
<circle cx="492.1" cy="128.2" r="1.3" fill="#000000" fill-opacity="0.71"/>
<circle cx="67.3" cy="196.8" r="3.7" fill="#000000" fill-opacity="0.9"/>
<circle cx="615.1" cy="266.7" r="2.8" fill="#404040" fill-opacity="0.82"/>
<circle cx="356.6" cy="606.9" r="3.7" fill="#000000" fill-opacity="0.7"/>
<circle cx="188.9" cy="484.3" r="5.5" fill="#404040" fill-opacity="0.62"/>
<circle cx="507.9" cy="255.0" r="1.9" fill="#404040" fill-opacity="0.55"/>
<circle cx="294.9" cy="82.2" r="1.8" fill="#000000" fill-opacity="0.77"/>
<circle cx="285.8" cy="544.1" r="4.2" fill="#000000" fill-opacity="0.69"/>
<circle cx="267.6" cy="610.8" r="2.0" fill="#000000" fill-opacity="0.87"/>
<circle cx="160.1" cy="175.1" r="3.7" fill="#000000" fill-opacity="0.6"/>
<circle cx="569.4" cy="244.9" r="4.8" fill="#000000" fill-opacity="0.36"/>
<circle cx="599.6" cy="306.7" r="5.0" fill="#404040" fill-opacity="0.48"/>
<circle cx="569.1" cy="304.9" r="1.9" fill="#000000" fill-opacity="0.36"/>
<circle cx="47.8" cy="153.3" r="3.2" fill="#404040" fill-opacity="0.85"/>
<circle cx="9.9" cy="211.0" r="3.3" fill="#404040" fill-opacity="0.46"/>
<circle cx="214.9" cy="469.6" r="3.6" fill="#000000" fill-opacity="0.84"/>
<circle cx="341.1" cy="405.4" r="3.7" fill="#404040" fill-opacity="0.95"/>
<circle cx="264.9" cy="106.2" r="3.7" fill="#404040" fill-opacity="0.41"/>
<circle cx="30.4" cy="23.1" r="2.7" fill="#000000" fill-opacity="0.8"/>
<circle cx="147.2" cy="483.5" r="1.9" fill="#404040" fill-opacity="0.73"/>
<circle cx="281.0" cy="445.1" r="3.0" fill="#000000" fill-opacity="0.51"/>
<circle cx="515.4" cy="75.0" r="1.9" fill="#404040" fill-opacity="0.5"/>
<circle cx="176.3" cy="233.7" r="3.6" fill="#000000" fill-opacity="0.8"/>
<circle cx="126.9" cy="357.8" r="4.2" fill="#000000" fill-opacity="0.37"/>
<circle cx="417.7" cy="521.7" r="1.6" fill="#000000" fill-opacity="0.5"/>
<circle cx="433.8" cy="463.8" r="4.7" fill="#404040" fill-opacity="0.43"/>
<circle cx="96.1" cy="55.4" r="4.5" fill="#404040" fill-opacity="0.71"/>
<circle cx="413.8" cy="106.6" r="4.9" fill="#000000" fill-opacity="0.86"/>
<circle cx="458.8" cy="393.6" r="4.5" fill="#404040" fill-opacity="0.85"/>
<circle cx="391.1" cy="217.7" r="1.4" fill="#404040" fill-opacity="0.65"/>
<circle cx="219.1" cy="400.0" r="2.0" fill="#000000" fill-opacity="0.63"/>
<circle cx="114.9" cy="71.1" r="3.3" fill="#000000" fill-opacity="0.46"/>
<circle cx="618.7" cy="467.6" r="1.3" fill="#000000" fill-opacity="0.83"/>
<circle cx="241.2" cy="436.6" r="1.6" fill="#000000" fill-opacity="0.72"/>
<circle cx="508.7" cy="150.6" r="3.1" fill="#000000" fill-opacity="0.49"/>
<circle cx="507.5" cy="559.5" r="1.5" fill="#404040" fill-opacity="0.82"/>
<circle cx="523.1" cy="560.3" r="4.8" fill="#000000" fill-opacity="0.55"/>
<circle cx="495.4" cy="238.8" r="2.5" fill="#404040" fill-opacity="0.7"/>
<circle cx="29.2" cy="253.8" r="2.5" fill="#000000" fill-opacity="0.36"/>
<circle cx="101.6" cy="603.9" r="5.0" fill="#000000" fill-opacity="0.61"/>
<circle cx="518.2" cy="189.3" r="1.7" fill="#000000" fill-opacity="0.4"/>
<circle cx="273.6" cy="46.3" r="2.7" fill="#000000" fill-opacity="0.87"/>
<circle cx="388.1" cy="203.1" r="2.6" fill="#000000" fill-opacity="0.82"/>
<circle cx="209.3" cy="530.6" r="1.3" fill="#404040" fill-opacity="0.47"/>
<circle cx="520.9" cy="390.6" r="3.6" fill="#000000" fill-opacity="0.79"/>
<circle cx="443.9" cy="11.9" r="4.9" fill="#404040" fill-opacity="0.45"/>
<circle cx="184.8" cy="255.7" r="3.4" fill="#000000" fill-opacity="0.4"/>
<circle cx="576.8" cy="145.8" r="3.5" fill="#000000" fill-opacity="0.54"/>
<circle cx="634.7" cy="135.8" r="4.0" fill="#000000" fill-opacity="0.53"/>
<circle cx="104.9" cy="363.0" r="3.1" fill="#404040" fill-opacity="0.65"/>
<circle cx="362.0" cy="18.4" r="2.1" fill="#404040" fill-opacity="0.74"/>
<circle cx="576.4" cy="115.0" r="2.5" fill="#404040" fill-opacity="0.64"/>
<circle cx="633.1" cy="162.9" r="3.7" fill="#404040" fill-opacity="0.48"/>
<circle cx="275.6" cy="2.1" r="4.0" fill="#000000" fill-opacity="0.38"/>
</svg>
